<?xml version="1.0" encoding="UTF-8"?>
<svg width="114px" height="114px" viewBox="0 0 114 114" version="1.1" xmlns="http://www.w3.org/2000/svg" xmlns:xlink="http://www.w3.org/1999/xlink">
    <!-- Generator: Sketch 57.1 (83088) - https://sketch.com -->
    <title>logo1</title>
    <desc>Created with Sketch.</desc>
    <defs>
        <linearGradient x1="96.6384247%" y1="35.0462676%" x2="0%" y2="68%" id="linearGradient-1">
            <stop stop-color="#FCCF0A" stop-opacity="0.6" offset="0%"></stop>
            <stop stop-color="#FAF6F6" offset="37.8488077%"></stop>
            <stop stop-color="#FAF9F9" offset="100%"></stop>
        </linearGradient>
        <linearGradient x1="100%" y1="42.877824%" x2="0%" y2="58.9990817%" id="linearGradient-2">
            <stop stop-color="#FCCF0A" offset="0%"></stop>
            <stop stop-color="#FBFAFA" offset="43.0784356%"></stop>
            <stop stop-color="#F9F8F8" offset="100%"></stop>
        </linearGradient>
        <linearGradient x1="100%" y1="37.5894585%" x2="0%" y2="64.8760331%" id="linearGradient-3">
            <stop stop-color="#FCCF0A" offset="0%"></stop>
            <stop stop-color="#F4F4F4" offset="35.2399723%"></stop>
            <stop stop-color="#FFFFFF" offset="100%"></stop>
        </linearGradient>
        <linearGradient x1="100%" y1="36.2363768%" x2="0%" y2="67.3010381%" id="linearGradient-4">
            <stop stop-color="#FCCF0A" stop-opacity="0.6" offset="0%"></stop>
            <stop stop-color="#EDEDED" offset="23.149455%"></stop>
            <stop stop-color="#FFFFFF" offset="100%"></stop>
        </linearGradient>
    </defs>
    <g id="页面-1" stroke="none" stroke-width="1" fill="none" fill-rule="evenodd">
        <g id="画板" transform="translate(-100.000000, -14.000000)">
            <g id="logo1" transform="translate(104.000000, 15.000000)">
                <g id="星星" transform="translate(14.000000, 44.000000)" fill-rule="nonzero">
                    <rect id="矩形" fill="#000000" opacity="0" x="0" y="0" width="18" height="18"></rect>
                    <path d="M9,0 L9,0 C15,0 18,3 18,9 L18,9 C18,15 15,18 9,18 L9,18 C3,18 0,15 0,9 L0,9 C0,3 3,0 9,0 Z" id="路径" fill="#FFFFFF"></path>
                    <path d="M9,11.0103331 L7.18968997,11.949724 C7.04033622,12.0272447 6.85933803,12.0143339 6.72283091,11.9164225 C6.58632379,11.818511 6.51799464,11.6525885 6.54658559,11.4884491 L6.89229298,9.49899632 L5.42791194,8.09001929 C5.30715983,7.97380301 5.26370571,7.80001708 5.31581206,7.64169856 C5.36791841,7.48338004 5.50655338,7.36797102 5.67345283,7.34397448 L7.69739229,7.05373659 L8.60265811,5.24363197 C8.67736461,5.0944346 8.83137896,5 9,5 C9.16862104,5 9.32263539,5.0944346 9.39734189,5.24363197 L10.3026077,7.05373659 L12.3265472,7.34397448 C12.4934466,7.36797102 12.6320816,7.48338004 12.6841879,7.64169856 C12.7362943,7.80001708 12.6928402,7.97380301 12.5720881,8.09001929 L11.107707,9.49899632 L11.4534144,11.4884491 C11.4820054,11.6525885 11.4136762,11.818511 11.2771691,11.9164225 C11.140662,12.0143339 10.9596638,12.0272447 10.81031,11.949724 L9,11.0103331 Z" id="路径" fill="#FCCF0A"></path>
                </g>
                <g id="星星" transform="translate(86.000000, 26.000000)" fill-rule="nonzero">
                    <rect id="矩形" fill="#000000" opacity="0" x="0" y="0" width="18" height="18"></rect>
                    <path d="M9,0 L9,0 C15,0 18,3 18,9 L18,9 C18,15 15,18 9,18 L9,18 C3,18 0,15 0,9 L0,9 C0,3 3,0 9,0 Z" id="路径" fill="#FFFFFF"></path>
                    <path d="M9,11.0103331 L7.18968997,11.949724 C7.04033622,12.0272447 6.85933803,12.0143339 6.72283091,11.9164225 C6.58632379,11.818511 6.51799464,11.6525885 6.54658559,11.4884491 L6.89229298,9.49899632 L5.42791194,8.09001929 C5.30715983,7.97380301 5.26370571,7.80001708 5.31581206,7.64169856 C5.36791841,7.48338004 5.50655338,7.36797102 5.67345283,7.34397448 L7.69739229,7.05373659 L8.60265811,5.24363197 C8.67736461,5.0944346 8.83137896,5 9,5 C9.16862104,5 9.32263539,5.0944346 9.39734189,5.24363197 L10.3026077,7.05373659 L12.3265472,7.34397448 C12.4934466,7.36797102 12.6320816,7.48338004 12.6841879,7.64169856 C12.7362943,7.80001708 12.6928402,7.97380301 12.5720881,8.09001929 L11.107707,9.49899632 L11.4534144,11.4884491 C11.4820054,11.6525885 11.4136762,11.818511 11.2771691,11.9164225 C11.140662,12.0143339 10.9596638,12.0272447 10.81031,11.949724 L9,11.0103331 Z" id="路径" fill="#FCCF0A"></path>
                </g>
                <path d="M7.00000019,9.64615551 C7.00000019,8.54158602 8.10790573,7.64615551 9.47457646,7.64615551 L9.47457646,7.64615551 L77.5254239,7.64615551 C78.8920947,7.64615551 80.0000002,8.54158602 80.0000002,9.64615551" id="路径" stroke="#D49D5C" fill="#D0A169" transform="translate(43.500000, 8.646156) rotate(-11.000000) translate(-43.500000, -8.646156) "></path>
                <polygon id="矩形" stroke="#D0A169" fill-opacity="0.8" fill="#D8AA73" points="11 52.5688302 72 37 72 71.9085401 11 92"></polygon>
                <polygon id="矩形备份" stroke="#D0A169" fill-opacity="0.8" fill="#D8AA73" points="106 49.6559739 73 37 73 72.8459447 106 87"></polygon>
                <polygon id="矩形备份" stroke="#D0A169" fill="#C29865" points="45 66.9215712 11 53 11 92.4305391 45 108"></polygon>
                <path d="M19,14.5903289 C9.42008503,12.6144017 0.701624262,15.500856 0,24.7319729 C0.153576404,33.5028633 4.42680468,46.917574 9.30825864,51" id="路径" stroke="#D0A169" fill="#D0A169"></path>
                <polygon id="矩形" stroke="#D0A169" fill-opacity="0.8" fill="#D8AA73" points="20.5801911 15.014412 79 4 71.1493685 35.4970977 11 51"></polygon>
                <polygon id="矩形" stroke="#D49D5C" fill="#D0A169" points="45 67.1349695 106 51 106 87.1779416 45 108"></polygon>
                <g id="星星" transform="translate(11.000000, 31.000000)" fill-rule="nonzero">
                    <rect id="矩形" fill="#000000" opacity="0" x="0" y="0" width="18" height="18"></rect>
                    <path d="M9,0 L9,0 C15,0 18,3 18,9 L18,9 C18,15 15,18 9,18 L9,18 C3,18 0,15 0,9 L0,9 C0,3 3,0 9,0 Z" id="路径"></path>
                    <path d="M9,11.0103331 L7.18968997,11.949724 C7.04033622,12.0272447 6.85933803,12.0143339 6.72283091,11.9164225 C6.58632379,11.818511 6.51799464,11.6525885 6.54658559,11.4884491 L6.89229298,9.49899632 L5.42791194,8.09001929 C5.30715983,7.97380301 5.26370571,7.80001708 5.31581206,7.64169856 C5.36791841,7.48338004 5.50655338,7.36797102 5.67345283,7.34397448 L7.69739229,7.05373659 L8.60265811,5.24363197 C8.67736461,5.0944346 8.83137896,5 9,5 C9.16862104,5 9.32263539,5.0944346 9.39734189,5.24363197 L10.3026077,7.05373659 L12.3265472,7.34397448 C12.4934466,7.36797102 12.6320816,7.48338004 12.6841879,7.64169856 C12.7362943,7.80001708 12.6928402,7.97380301 12.5720881,8.09001929 L11.107707,9.49899632 L11.4534144,11.4884491 C11.4820054,11.6525885 11.4136762,11.818511 11.2771691,11.9164225 C11.140662,12.0143339 10.9596638,12.0272447 10.81031,11.949724 L9,11.0103331 Z" id="路径" fill="#FCCF0A"></path>
                </g>
                <g id="星星" transform="translate(74.000000, 14.000000)" fill-rule="nonzero">
                    <rect id="矩形" fill="#000000" opacity="0" x="0" y="0" width="18" height="18"></rect>
                    <path d="M9,0 L9,0 C15,0 18,3 18,9 L18,9 C18,15 15,18 9,18 L9,18 C3,18 0,15 0,9 L0,9 C0,3 3,0 9,0 Z" id="路径"></path>
                    <path d="M9,11.0103331 L7.18968997,11.949724 C7.04033622,12.0272447 6.85933803,12.0143339 6.72283091,11.9164225 C6.58632379,11.818511 6.51799464,11.6525885 6.54658559,11.4884491 L6.89229298,9.49899632 L5.42791194,8.09001929 C5.30715983,7.97380301 5.26370571,7.80001708 5.31581206,7.64169856 C5.36791841,7.48338004 5.50655338,7.36797102 5.67345283,7.34397448 L7.69739229,7.05373659 L8.60265811,5.24363197 C8.67736461,5.0944346 8.83137896,5 9,5 C9.16862104,5 9.32263539,5.0944346 9.39734189,5.24363197 L10.3026077,7.05373659 L12.3265472,7.34397448 C12.4934466,7.36797102 12.6320816,7.48338004 12.6841879,7.64169856 C12.7362943,7.80001708 12.6928402,7.97380301 12.5720881,8.09001929 L11.107707,9.49899632 L11.4534144,11.4884491 C11.4820054,11.6525885 11.4136762,11.818511 11.2771691,11.9164225 C11.140662,12.0143339 10.9596638,12.0272447 10.81031,11.949724 L9,11.0103331 Z" id="路径" fill="#FCCF0A"></path>
                </g>
                <g id="星星" transform="translate(40.000000, 43.000000)" fill-rule="nonzero">
                    <rect id="矩形" fill="#000000" opacity="0" x="0" y="0" width="8" height="8"></rect>
                    <path d="M4,0 L4,0 C6.66666667,0 8,1.33333333 8,4 L8,4 C8,6.66666667 6.66666667,8 4,8 L4,8 C1.33333333,8 0,6.66666667 0,4 L0,4 C0,1.33333333 1.33333333,0 4,0 Z" id="路径"></path>
                    <path d="M4,4.89348136 L3.19541777,5.31098844 C3.12903832,5.3454421 3.04859468,5.33970397 2.98792485,5.29618776 C2.92725502,5.25267155 2.89688651,5.17892824 2.90959359,5.1059774 L3.06324132,4.22177614 L2.41240531,3.59556413 C2.3587377,3.54391245 2.33942476,3.46667426 2.36258314,3.39631047 C2.38574152,3.32594668 2.44735706,3.27465379 2.52153459,3.26398866 L3.42106324,3.13499404 L3.82340361,2.3305031 C3.85660649,2.26419316 3.92505732,2.22222222 4,2.22222222 C4.07494268,2.22222222 4.14339351,2.26419316 4.17659639,2.3305031 L4.57893676,3.13499404 L5.47846541,3.26398866 C5.55264294,3.27465379 5.61425848,3.32594668 5.63741686,3.39631047 C5.66057524,3.46667426 5.6412623,3.54391245 5.58759469,3.59556413 L4.93675868,4.22177614 L5.09040641,5.1059774 C5.10311349,5.17892824 5.07274498,5.25267155 5.01207515,5.29618776 C4.95140532,5.33970397 4.87096168,5.3454421 4.80458223,5.31098844 L4,4.89348136 Z" id="路径" fill="#FCCF0A"></path>
                </g>
                <g id="星星" transform="translate(40.000000, 43.000000)" fill-rule="nonzero">
                    <rect id="矩形" fill="#000000" opacity="0" x="0" y="0" width="8" height="8"></rect>
                    <path d="M4,0 L4,0 C6.66666667,0 8,1.33333333 8,4 L8,4 C8,6.66666667 6.66666667,8 4,8 L4,8 C1.33333333,8 0,6.66666667 0,4 L0,4 C0,1.33333333 1.33333333,0 4,0 Z" id="路径"></path>
                    <path d="M4,4.89348136 L3.19541777,5.31098844 C3.12903832,5.3454421 3.04859468,5.33970397 2.98792485,5.29618776 C2.92725502,5.25267155 2.89688651,5.17892824 2.90959359,5.1059774 L3.06324132,4.22177614 L2.41240531,3.59556413 C2.3587377,3.54391245 2.33942476,3.46667426 2.36258314,3.39631047 C2.38574152,3.32594668 2.44735706,3.27465379 2.52153459,3.26398866 L3.42106324,3.13499404 L3.82340361,2.3305031 C3.85660649,2.26419316 3.92505732,2.22222222 4,2.22222222 C4.07494268,2.22222222 4.14339351,2.26419316 4.17659639,2.3305031 L4.57893676,3.13499404 L5.47846541,3.26398866 C5.55264294,3.27465379 5.61425848,3.32594668 5.63741686,3.39631047 C5.66057524,3.46667426 5.6412623,3.54391245 5.58759469,3.59556413 L4.93675868,4.22177614 L5.09040641,5.1059774 C5.10311349,5.17892824 5.07274498,5.25267155 5.01207515,5.29618776 C4.95140532,5.33970397 4.87096168,5.3454421 4.80458223,5.31098844 L4,4.89348136 Z" id="路径" fill="#FCCF0A"></path>
                </g>
                <g id="星星" transform="translate(33.000000, 52.000000)" fill-rule="nonzero">
                    <rect id="矩形" fill="#000000" opacity="0" x="0" y="0" width="8" height="8"></rect>
                    <path d="M4,0 L4,0 C6.66666667,0 8,1.33333333 8,4 L8,4 C8,6.66666667 6.66666667,8 4,8 L4,8 C1.33333333,8 0,6.66666667 0,4 L0,4 C0,1.33333333 1.33333333,0 4,0 Z" id="路径"></path>
                    <path d="M4,4.89348136 L3.19541777,5.31098844 C3.12903832,5.3454421 3.04859468,5.33970397 2.98792485,5.29618776 C2.92725502,5.25267155 2.89688651,5.17892824 2.90959359,5.1059774 L3.06324132,4.22177614 L2.41240531,3.59556413 C2.3587377,3.54391245 2.33942476,3.46667426 2.36258314,3.39631047 C2.38574152,3.32594668 2.44735706,3.27465379 2.52153459,3.26398866 L3.42106324,3.13499404 L3.82340361,2.3305031 C3.85660649,2.26419316 3.92505732,2.22222222 4,2.22222222 C4.07494268,2.22222222 4.14339351,2.26419316 4.17659639,2.3305031 L4.57893676,3.13499404 L5.47846541,3.26398866 C5.55264294,3.27465379 5.61425848,3.32594668 5.63741686,3.39631047 C5.66057524,3.46667426 5.6412623,3.54391245 5.58759469,3.59556413 L4.93675868,4.22177614 L5.09040641,5.1059774 C5.10311349,5.17892824 5.07274498,5.25267155 5.01207515,5.29618776 C4.95140532,5.33970397 4.87096168,5.3454421 4.80458223,5.31098844 L4,4.89348136 Z" id="路径" fill="#FCCF0A"></path>
                </g>
                <path d="" id="路径-2" stroke="#979797"></path>
                <path d="M62.3700847,55.2300878 C67.1629505,40.0323518 77.1629505,34.4584149 92.3700847,38.5082772" id="路径-3" stroke="url(#linearGradient-1)" transform="translate(77.370085, 46.230088) rotate(-10.000000) translate(-77.370085, -46.230088) "></path>
                <g id="星星" transform="translate(64.000000, 35.000000)" fill-rule="nonzero">
                    <rect id="矩形" fill="#000000" opacity="0" x="0" y="0" width="8" height="8"></rect>
                    <path d="M4,0 L4,0 C6.66666667,0 8,1.33333333 8,4 L8,4 C8,6.66666667 6.66666667,8 4,8 L4,8 C1.33333333,8 0,6.66666667 0,4 L0,4 C0,1.33333333 1.33333333,0 4,0 Z" id="路径"></path>
                    <path d="M4,4.89348136 L3.19541777,5.31098844 C3.12903832,5.3454421 3.04859468,5.33970397 2.98792485,5.29618776 C2.92725502,5.25267155 2.89688651,5.17892824 2.90959359,5.1059774 L3.06324132,4.22177614 L2.41240531,3.59556413 C2.3587377,3.54391245 2.33942476,3.46667426 2.36258314,3.39631047 C2.38574152,3.32594668 2.44735706,3.27465379 2.52153459,3.26398866 L3.42106324,3.13499404 L3.82340361,2.3305031 C3.85660649,2.26419316 3.92505732,2.22222222 4,2.22222222 C4.07494268,2.22222222 4.14339351,2.26419316 4.17659639,2.3305031 L4.57893676,3.13499404 L5.47846541,3.26398866 C5.55264294,3.27465379 5.61425848,3.32594668 5.63741686,3.39631047 C5.66057524,3.46667426 5.6412623,3.54391245 5.58759469,3.59556413 L4.93675868,4.22177614 L5.09040641,5.1059774 C5.10311349,5.17892824 5.07274498,5.25267155 5.01207515,5.29618776 C4.95140532,5.33970397 4.87096168,5.3454421 4.80458223,5.31098844 L4,4.89348136 Z" id="路径" fill="#FCCF0A"></path>
                </g>
                <path d="M24,56 C29.2721523,44.1795387 40.2721523,39.8442545 57,42.9941473" id="路径-3" stroke="#979797" transform="translate(40.500000, 49.000000) scale(-1, 1) rotate(-10.000000) translate(-40.500000, -49.000000) "></path>
                <path d="M24,56 C29.2721523,44.1795387 40.2721523,39.8442545 57,42.9941473" id="路径-3" stroke="url(#linearGradient-2)" transform="translate(40.500000, 49.000000) scale(-1, 1) rotate(-10.000000) translate(-40.500000, -49.000000) "></path>
                <path d="M29,63 C32.5147682,52.868176 39.8481015,49.1522181 51,51.8521263" id="路径-3" stroke="url(#linearGradient-3)" transform="translate(40.000000, 57.000000) scale(-1, 1) rotate(6.000000) translate(-40.000000, -57.000000) "></path>
                <path d="M52.4548858,50.4284981 C57.8868003,33.5421248 69.2201336,27.3488616 86.4548858,31.8487086" id="路径-3" stroke="url(#linearGradient-4)" transform="translate(69.454886, 40.428498) rotate(-31.000000) translate(-69.454886, -40.428498) "></path>
                <g id="星星" transform="translate(14.000000, 44.000000)" fill-rule="nonzero">
                    <rect id="矩形" fill="#000000" opacity="0" x="0" y="0" width="18" height="18"></rect>
                    <path d="M9,0 L9,0 C15,0 18,3 18,9 L18,9 C18,15 15,18 9,18 L9,18 C3,18 0,15 0,9 L0,9 C0,3 3,0 9,0 Z" id="路径"></path>
                    <path d="M9,11.0103331 L7.18968997,11.949724 C7.04033622,12.0272447 6.85933803,12.0143339 6.72283091,11.9164225 C6.58632379,11.818511 6.51799464,11.6525885 6.54658559,11.4884491 L6.89229298,9.49899632 L5.42791194,8.09001929 C5.30715983,7.97380301 5.26370571,7.80001708 5.31581206,7.64169856 C5.36791841,7.48338004 5.50655338,7.36797102 5.67345283,7.34397448 L7.69739229,7.05373659 L8.60265811,5.24363197 C8.67736461,5.0944346 8.83137896,5 9,5 C9.16862104,5 9.32263539,5.0944346 9.39734189,5.24363197 L10.3026077,7.05373659 L12.3265472,7.34397448 C12.4934466,7.36797102 12.6320816,7.48338004 12.6841879,7.64169856 C12.7362943,7.80001708 12.6928402,7.97380301 12.5720881,8.09001929 L11.107707,9.49899632 L11.4534144,11.4884491 C11.4820054,11.6525885 11.4136762,11.818511 11.2771691,11.9164225 C11.140662,12.0143339 10.9596638,12.0272447 10.81031,11.949724 L9,11.0103331 Z" id="路径" fill="#FCCF0A"></path>
                </g>
                <g id="星星" transform="translate(64.000000, 47.000000)" fill-rule="nonzero">
                    <rect id="矩形" fill="#000000" opacity="0" x="0" y="0" width="8" height="8"></rect>
                    <path d="M4,0 L4,0 C6.66666667,0 8,1.33333333 8,4 L8,4 C8,6.66666667 6.66666667,8 4,8 L4,8 C1.33333333,8 0,6.66666667 0,4 L0,4 C0,1.33333333 1.33333333,0 4,0 Z" id="路径"></path>
                    <path d="M4,4.89348136 L3.19541777,5.31098844 C3.12903832,5.3454421 3.04859468,5.33970397 2.98792485,5.29618776 C2.92725502,5.25267155 2.89688651,5.17892824 2.90959359,5.1059774 L3.06324132,4.22177614 L2.41240531,3.59556413 C2.3587377,3.54391245 2.33942476,3.46667426 2.36258314,3.39631047 C2.38574152,3.32594668 2.44735706,3.27465379 2.52153459,3.26398866 L3.42106324,3.13499404 L3.82340361,2.3305031 C3.85660649,2.26419316 3.92505732,2.22222222 4,2.22222222 C4.07494268,2.22222222 4.14339351,2.26419316 4.17659639,2.3305031 L4.57893676,3.13499404 L5.47846541,3.26398866 C5.55264294,3.27465379 5.61425848,3.32594668 5.63741686,3.39631047 C5.66057524,3.46667426 5.6412623,3.54391245 5.58759469,3.59556413 L4.93675868,4.22177614 L5.09040641,5.1059774 C5.10311349,5.17892824 5.07274498,5.25267155 5.01207515,5.29618776 C4.95140532,5.33970397 4.87096168,5.3454421 4.80458223,5.31098844 L4,4.89348136 Z" id="路径" fill="#FCCF0A"></path>
                </g>
                <g id="星星" transform="translate(47.000000, 50.000000)" fill-rule="nonzero">
                    <rect id="矩形" fill="#000000" opacity="0" x="0" y="0" width="8" height="8"></rect>
                    <path d="M4,0 L4,0 C6.66666667,0 8,1.33333333 8,4 L8,4 C8,6.66666667 6.66666667,8 4,8 L4,8 C1.33333333,8 0,6.66666667 0,4 L0,4 C0,1.33333333 1.33333333,0 4,0 Z" id="路径"></path>
                    <path d="M4,4.89348136 L3.19541777,5.31098844 C3.12903832,5.3454421 3.04859468,5.33970397 2.98792485,5.29618776 C2.92725502,5.25267155 2.89688651,5.17892824 2.90959359,5.1059774 L3.06324132,4.22177614 L2.41240531,3.59556413 C2.3587377,3.54391245 2.33942476,3.46667426 2.36258314,3.39631047 C2.38574152,3.32594668 2.44735706,3.27465379 2.52153459,3.26398866 L3.42106324,3.13499404 L3.82340361,2.3305031 C3.85660649,2.26419316 3.92505732,2.22222222 4,2.22222222 C4.07494268,2.22222222 4.14339351,2.26419316 4.17659639,2.3305031 L4.57893676,3.13499404 L5.47846541,3.26398866 C5.55264294,3.27465379 5.61425848,3.32594668 5.63741686,3.39631047 C5.66057524,3.46667426 5.6412623,3.54391245 5.58759469,3.59556413 L4.93675868,4.22177614 L5.09040641,5.1059774 C5.10311349,5.17892824 5.07274498,5.25267155 5.01207515,5.29618776 C4.95140532,5.33970397 4.87096168,5.3454421 4.80458223,5.31098844 L4,4.89348136 Z" id="路径" fill="#FCCF0A"></path>
                </g>
                <g id="星星" transform="translate(41.000000, 53.000000)" fill-rule="nonzero">
                    <rect id="矩形" fill="#000000" opacity="0" x="0" y="0" width="8" height="8"></rect>
                    <path d="M4,0 L4,0 C6.66666667,0 8,1.33333333 8,4 L8,4 C8,6.66666667 6.66666667,8 4,8 L4,8 C1.33333333,8 0,6.66666667 0,4 L0,4 C0,1.33333333 1.33333333,0 4,0 Z" id="路径"></path>
                    <path d="M4,4.89348136 L3.19541777,5.31098844 C3.12903832,5.3454421 3.04859468,5.33970397 2.98792485,5.29618776 C2.92725502,5.25267155 2.89688651,5.17892824 2.90959359,5.1059774 L3.06324132,4.22177614 L2.41240531,3.59556413 C2.3587377,3.54391245 2.33942476,3.46667426 2.36258314,3.39631047 C2.38574152,3.32594668 2.44735706,3.27465379 2.52153459,3.26398866 L3.42106324,3.13499404 L3.82340361,2.3305031 C3.85660649,2.26419316 3.92505732,2.22222222 4,2.22222222 C4.07494268,2.22222222 4.14339351,2.26419316 4.17659639,2.3305031 L4.57893676,3.13499404 L5.47846541,3.26398866 C5.55264294,3.27465379 5.61425848,3.32594668 5.63741686,3.39631047 C5.66057524,3.46667426 5.6412623,3.54391245 5.58759469,3.59556413 L4.93675868,4.22177614 L5.09040641,5.1059774 C5.10311349,5.17892824 5.07274498,5.25267155 5.01207515,5.29618776 C4.95140532,5.33970397 4.87096168,5.3454421 4.80458223,5.31098844 L4,4.89348136 Z" id="路径" fill="#FCCF0A"></path>
                </g>
                <g id="星星" transform="translate(51.000000, 45.000000)" fill-rule="nonzero">
                    <rect id="矩形" fill="#000000" opacity="0" x="0" y="0" width="8" height="8"></rect>
                    <path d="M4,0 L4,0 C6.66666667,0 8,1.33333333 8,4 L8,4 C8,6.66666667 6.66666667,8 4,8 L4,8 C1.33333333,8 0,6.66666667 0,4 L0,4 C0,1.33333333 1.33333333,0 4,0 Z" id="路径"></path>
                    <path d="M4,4.89348136 L3.19541777,5.31098844 C3.12903832,5.3454421 3.04859468,5.33970397 2.98792485,5.29618776 C2.92725502,5.25267155 2.89688651,5.17892824 2.90959359,5.1059774 L3.06324132,4.22177614 L2.41240531,3.59556413 C2.3587377,3.54391245 2.33942476,3.46667426 2.36258314,3.39631047 C2.38574152,3.32594668 2.44735706,3.27465379 2.52153459,3.26398866 L3.42106324,3.13499404 L3.82340361,2.3305031 C3.85660649,2.26419316 3.92505732,2.22222222 4,2.22222222 C4.07494268,2.22222222 4.14339351,2.26419316 4.17659639,2.3305031 L4.57893676,3.13499404 L5.47846541,3.26398866 C5.55264294,3.27465379 5.61425848,3.32594668 5.63741686,3.39631047 C5.66057524,3.46667426 5.6412623,3.54391245 5.58759469,3.59556413 L4.93675868,4.22177614 L5.09040641,5.1059774 C5.10311349,5.17892824 5.07274498,5.25267155 5.01207515,5.29618776 C4.95140532,5.33970397 4.87096168,5.3454421 4.80458223,5.31098844 L4,4.89348136 Z" id="路径" fill="#FCCF0A"></path>
                </g>
                <g id="星星" transform="translate(50.000000, 40.000000)" fill-rule="nonzero">
                    <rect id="矩形" fill="#000000" opacity="0" x="0" y="0" width="8" height="8"></rect>
                    <path d="M4,0 L4,0 C6.66666667,0 8,1.33333333 8,4 L8,4 C8,6.66666667 6.66666667,8 4,8 L4,8 C1.33333333,8 0,6.66666667 0,4 L0,4 C0,1.33333333 1.33333333,0 4,0 Z" id="路径"></path>
                    <path d="M4,4.89348136 L3.19541777,5.31098844 C3.12903832,5.3454421 3.04859468,5.33970397 2.98792485,5.29618776 C2.92725502,5.25267155 2.89688651,5.17892824 2.90959359,5.1059774 L3.06324132,4.22177614 L2.41240531,3.59556413 C2.3587377,3.54391245 2.33942476,3.46667426 2.36258314,3.39631047 C2.38574152,3.32594668 2.44735706,3.27465379 2.52153459,3.26398866 L3.42106324,3.13499404 L3.82340361,2.3305031 C3.85660649,2.26419316 3.92505732,2.22222222 4,2.22222222 C4.07494268,2.22222222 4.14339351,2.26419316 4.17659639,2.3305031 L4.57893676,3.13499404 L5.47846541,3.26398866 C5.55264294,3.27465379 5.61425848,3.32594668 5.63741686,3.39631047 C5.66057524,3.46667426 5.6412623,3.54391245 5.58759469,3.59556413 L4.93675868,4.22177614 L5.09040641,5.1059774 C5.10311349,5.17892824 5.07274498,5.25267155 5.01207515,5.29618776 C4.95140532,5.33970397 4.87096168,5.3454421 4.80458223,5.31098844 L4,4.89348136 Z" id="路径" fill="#FCCF0A"></path>
                </g>
                <g id="星星" transform="translate(59.000000, 42.000000)" fill-rule="nonzero">
                    <rect id="矩形" fill="#000000" opacity="0" x="0" y="0" width="8" height="8"></rect>
                    <path d="M4,0 L4,0 C6.66666667,0 8,1.33333333 8,4 L8,4 C8,6.66666667 6.66666667,8 4,8 L4,8 C1.33333333,8 0,6.66666667 0,4 L0,4 C0,1.33333333 1.33333333,0 4,0 Z" id="路径"></path>
                    <path d="M4,4.89348136 L3.19541777,5.31098844 C3.12903832,5.3454421 3.04859468,5.33970397 2.98792485,5.29618776 C2.92725502,5.25267155 2.89688651,5.17892824 2.90959359,5.1059774 L3.06324132,4.22177614 L2.41240531,3.59556413 C2.3587377,3.54391245 2.33942476,3.46667426 2.36258314,3.39631047 C2.38574152,3.32594668 2.44735706,3.27465379 2.52153459,3.26398866 L3.42106324,3.13499404 L3.82340361,2.3305031 C3.85660649,2.26419316 3.92505732,2.22222222 4,2.22222222 C4.07494268,2.22222222 4.14339351,2.26419316 4.17659639,2.3305031 L4.57893676,3.13499404 L5.47846541,3.26398866 C5.55264294,3.27465379 5.61425848,3.32594668 5.63741686,3.39631047 C5.66057524,3.46667426 5.6412623,3.54391245 5.58759469,3.59556413 L4.93675868,4.22177614 L5.09040641,5.1059774 C5.10311349,5.17892824 5.07274498,5.25267155 5.01207515,5.29618776 C4.95140532,5.33970397 4.87096168,5.3454421 4.80458223,5.31098844 L4,4.89348136 Z" id="路径" fill="#FCCF0A"></path>
                </g>
                <g id="星星" transform="translate(72.000000, 40.000000)" fill-rule="nonzero">
                    <rect id="矩形" fill="#000000" opacity="0" x="0" y="0" width="8" height="8"></rect>
                    <path d="M4,0 L4,0 C6.66666667,0 8,1.33333333 8,4 L8,4 C8,6.66666667 6.66666667,8 4,8 L4,8 C1.33333333,8 0,6.66666667 0,4 L0,4 C0,1.33333333 1.33333333,0 4,0 Z" id="路径"></path>
                    <path d="M4,4.89348136 L3.19541777,5.31098844 C3.12903832,5.3454421 3.04859468,5.33970397 2.98792485,5.29618776 C2.92725502,5.25267155 2.89688651,5.17892824 2.90959359,5.1059774 L3.06324132,4.22177614 L2.41240531,3.59556413 C2.3587377,3.54391245 2.33942476,3.46667426 2.36258314,3.39631047 C2.38574152,3.32594668 2.44735706,3.27465379 2.52153459,3.26398866 L3.42106324,3.13499404 L3.82340361,2.3305031 C3.85660649,2.26419316 3.92505732,2.22222222 4,2.22222222 C4.07494268,2.22222222 4.14339351,2.26419316 4.17659639,2.3305031 L4.57893676,3.13499404 L5.47846541,3.26398866 C5.55264294,3.27465379 5.61425848,3.32594668 5.63741686,3.39631047 C5.66057524,3.46667426 5.6412623,3.54391245 5.58759469,3.59556413 L4.93675868,4.22177614 L5.09040641,5.1059774 C5.10311349,5.17892824 5.07274498,5.25267155 5.01207515,5.29618776 C4.95140532,5.33970397 4.87096168,5.3454421 4.80458223,5.31098844 L4,4.89348136 Z" id="路径" fill="#FCCF0A"></path>
                </g>
            </g>
        </g>
    </g>
</svg>